<mxfile host="app.diagrams.net" modified="2023-10-17T15:47:19.665Z" agent="Mozilla/5.0 (Windows NT 10.0; Win64; x64) AppleWebKit/537.36 (KHTML, like Gecko) Chrome/118.0.0.0 Safari/537.36" etag="pT-R7xiZFF_szySu_C6a" version="22.0.4" type="device">
  <diagram name="Página-1" id="K5-T6cy3eRS5XtoWPdn2">
    <mxGraphModel dx="1247" dy="659" grid="1" gridSize="10" guides="1" tooltips="1" connect="1" arrows="1" fold="1" page="1" pageScale="1" pageWidth="827" pageHeight="1169" math="0" shadow="0">
      <root>
        <mxCell id="0" />
        <mxCell id="1" parent="0" />
        <mxCell id="IEsQKHXjOzU2OjtEDUcf-1" value="" style="rounded=0;whiteSpace=wrap;html=1;" vertex="1" parent="1">
          <mxGeometry x="104" y="90" width="620" height="430" as="geometry" />
        </mxCell>
        <mxCell id="IEsQKHXjOzU2OjtEDUcf-5" value="" style="group" vertex="1" connectable="0" parent="1">
          <mxGeometry x="331" y="215" width="166" height="180" as="geometry" />
        </mxCell>
        <mxCell id="IEsQKHXjOzU2OjtEDUcf-2" value="" style="rounded=1;whiteSpace=wrap;html=1;" vertex="1" parent="IEsQKHXjOzU2OjtEDUcf-5">
          <mxGeometry width="166" height="180" as="geometry" />
        </mxCell>
        <mxCell id="IEsQKHXjOzU2OjtEDUcf-3" value="" style="rounded=1;whiteSpace=wrap;html=1;" vertex="1" parent="IEsQKHXjOzU2OjtEDUcf-5">
          <mxGeometry x="23" y="60" width="120" height="20" as="geometry" />
        </mxCell>
        <mxCell id="IEsQKHXjOzU2OjtEDUcf-4" value="" style="rounded=1;whiteSpace=wrap;html=1;" vertex="1" parent="IEsQKHXjOzU2OjtEDUcf-5">
          <mxGeometry x="23" y="120" width="120" height="20" as="geometry" />
        </mxCell>
        <mxCell id="IEsQKHXjOzU2OjtEDUcf-7" value="Usuário" style="text;html=1;strokeColor=none;fillColor=none;align=center;verticalAlign=middle;whiteSpace=wrap;rounded=0;" vertex="1" parent="IEsQKHXjOzU2OjtEDUcf-5">
          <mxGeometry x="42" y="60" width="80" height="20" as="geometry" />
        </mxCell>
        <mxCell id="IEsQKHXjOzU2OjtEDUcf-8" value="Senha" style="text;html=1;strokeColor=none;fillColor=none;align=center;verticalAlign=middle;whiteSpace=wrap;rounded=0;" vertex="1" parent="IEsQKHXjOzU2OjtEDUcf-5">
          <mxGeometry x="37" y="115" width="90" height="30" as="geometry" />
        </mxCell>
        <mxCell id="IEsQKHXjOzU2OjtEDUcf-9" value="Primeiro Acesso" style="text;html=1;strokeColor=none;fillColor=none;align=center;verticalAlign=middle;whiteSpace=wrap;rounded=0;fontStyle=4;fontSize=9;" vertex="1" parent="IEsQKHXjOzU2OjtEDUcf-5">
          <mxGeometry x="23" y="140" width="120" height="30" as="geometry" />
        </mxCell>
      </root>
    </mxGraphModel>
  </diagram>
</mxfile>
